<?xml version="1.0" encoding="utf-8"?>
<!-- Generator: Adobe Illustrator 23.0.6, SVG Export Plug-In . SVG Version: 6.00 Build 0)  -->
<svg version="1.1" xmlns="http://www.w3.org/2000/svg" xmlns:xlink="http://www.w3.org/1999/xlink" x="0px" y="0px"
	 viewBox="0 0 720 149.29" style="enable-background:new 0 0 720 149.29;" xml:space="preserve">
<style type="text/css">
	.st0{fill:#060606;}
	.st1{fill:#070707;}
	.st2{fill:#030303;}
	.st3{fill:#080808;}
	.st4{fill:none;stroke:url(#SVGID_1_);stroke-width:10;stroke-miterlimit:10;}
	.st5{fill:none;stroke:url(#SVGID_2_);stroke-width:10;stroke-miterlimit:10;}
	.st6{fill:none;stroke:url(#SVGID_3_);stroke-width:10;stroke-miterlimit:10;}
	.st7{fill:none;stroke:url(#SVGID_4_);stroke-width:10;stroke-miterlimit:10;}
	.st8{fill:none;stroke:url(#SVGID_5_);stroke-width:10;stroke-miterlimit:10;}
	.st9{display:none;}
	.st10{display:inline;fill:#070707;}
	.st11{display:inline;}
	.st12{fill:#3395BD;}
	.st13{display:inline;fill:none;stroke:url(#SVGID_6_);stroke-width:10;stroke-miterlimit:10;}
	.st14{fill:none;stroke:url(#SVGID_7_);stroke-width:10;stroke-miterlimit:10;}
	.st15{fill:none;stroke:url(#SVGID_8_);stroke-width:10;stroke-miterlimit:10;}
	.st16{fill:none;stroke:#070808;stroke-width:10;stroke-miterlimit:10;}
</style>
<g id="Layer_1">
	<g>
		<g>
			<g>
				<path class="st0" d="M306.71,97.45c0,14.3,0,28.18,0,42.22c-3.55,0-6.77,0-9.97,0c-0.45-3.69-0.5-103.62-0.05-108.04
					c3.2,0,6.42,0,9.88,0c0,4.79,0,9.49,0,15.14c7.38-10.52,17.07-15.09,28.84-15.41c11.62-0.32,21.86,3.29,29.88,11.83
					c15.12,16.08,13.81,44.77-2.4,59.27C349.04,114.86,321.53,116.92,306.71,97.45z M335.44,40.86
					c-17.11,0.04-29.2,12.91-29.15,31.02c0.05,17.79,12.29,30.45,29.35,30.37c17.28-0.08,29.18-12.72,29.16-30.97
					C364.77,53.56,352.47,40.81,335.44,40.86z"/>
				<path class="st1" d="M458.38,74.22c1.55,12.32,7.01,21.17,18.22,25.34c13.61,5.07,26.12,2.99,37.06-7.63
					c1.96,2.2,3.92,4.41,6.1,6.85c-5.45,6.73-12.45,10.51-20.67,12.07c-15.54,2.94-29.7,0.28-41.07-11.47
					c-13.76-14.23-14.11-40.02-1.02-55.06c12.85-14.77,36.04-17.54,51.89-5.95c11.99,8.76,16.28,21.07,15.66,35.86
					C502.48,74.22,480.66,74.22,458.38,74.22z M513.93,67.69c-0.17-15.1-12.67-26.88-28.07-26.59
					c-15.13,0.28-27.43,12.3-27.11,26.59C477.14,67.69,495.54,67.69,513.93,67.69z"/>
				<path class="st1" d="M197.67,88.82c2.19-3.03,4.26-5.89,6.5-8.99c2.57,3.58,4.94,6.9,7.32,10.19
					c7.56,10.46,21.06,14.79,33.76,10.86c11.48-3.56,19.3-14.43,19.62-27.29c0.4-16-6.77-27.32-19.87-31.4
					c-12.52-3.9-25.2,0.15-32.96,10.68c-7.57,10.27-15.01,20.62-22.32,30.68c-2.45-2.2-4.85-4.35-7.53-6.76
					c7.84-10.98,15.19-22.23,23.53-32.7c9.43-11.84,28.41-15.93,44.2-10.56c15.07,5.12,25.07,18.36,25.96,34.34
					c1.21,22.04-10.42,38.86-30.61,43c-16.94,3.48-31.52-1-42.4-15.14C201.17,93.56,199.54,91.33,197.67,88.82z"/>
				<path class="st2" d="M556.63,112.06c-3.59,0-6.71,0-9.82,0c-0.61-3.34-0.84-71.39-0.27-80.37c3.19,0,6.41,0,9.91,0
					c0,4.36,0,8.79,0,14.27c5.26-7.16,11.47-11.56,19.18-13.26c12.63-2.79,24.65-2.1,34.6,7.6c5.62,5.48,7.82,12.57,7.96,20.05
					c0.32,17.11,0.1,34.23,0.1,51.57c-3.35,0-6.57,0-9.88,0c-0.76-0.98-0.34-2.21-0.35-3.34c-0.08-14.5,0.04-29-0.19-43.49
					c-0.24-14.88-7.41-22.8-21.22-23.97c-14.58-1.24-26.63,7.37-29.2,20.88c-0.69,3.64-0.83,7.32-0.83,11.01
					C556.64,85.9,556.63,98.8,556.63,112.06z"/>
				<path class="st3" d="M699.37,38.64c-1.66,3.07-3.1,5.72-4.52,8.35c-1.46,0.39-2.23-0.75-3.19-1.27
					c-9.6-5.21-19.75-6.05-30.25-3.83c-1.88,0.4-3.76,1.31-5.36,2.39c-7.55,5.07-7.08,14.59,0.97,18.83
					c5.68,2.99,12.12,3.37,18.26,4.75c5.5,1.24,11.07,2.17,16.28,4.57c13.92,6.41,12.27,23.76,5.02,30.69
					c-6.63,6.34-14.81,8.22-23.51,8.7c-12.94,0.71-25.06-1.85-36.24-9.58c1.67-2.93,3.21-5.63,4.95-8.68
					c7.95,5.56,16.73,8.31,26.2,8.82c5.02,0.27,10-0.13,14.77-1.86c5.43-1.97,8.31-5.78,8.35-10.77c0.03-4.59-2.59-7.92-8.12-9.96
					c-6.83-2.53-14.14-2.98-21.15-4.75c-3.95-0.99-7.94-1.8-11.6-3.7c-11.34-5.91-14.05-21.07-5.47-30.58
					c4.84-5.35,11.07-7.9,18.04-8.82C675.53,30.25,687.66,32.04,699.37,38.64z"/>
				<path class="st2" d="M400.01,40.1c-5.23,0-9.94,0-14.83,0c0-2.86,0-5.55,0-8.57c4.83,0,9.64,0,14.76,0c0-5.64,0-10.97,0-16.49
					c3.53,0,6.75,0,10.29,0c0,5.37,0,10.7,0,16.35c8.01,0,15.72,0,23.61,0c0,3,0,5.69,0,8.7c-7.74,0-15.45,0-23.54,0
					c0,7.77,0,15.24,0,22.7c0,8.3-0.16,16.61,0.04,24.9c0.32,13.2,10.73,18.94,22.44,12.5c0.8-0.44,1.56-0.97,2.63-1.65
					c1.24,2.48,2.46,4.91,3.77,7.52c-4.23,4.36-9.64,5.32-15.1,5.88c-10.7,1.1-19.81-4.21-22.77-13.12
					c-0.96-2.89-1.32-5.87-1.31-8.93C400.04,73.45,400.01,57,400.01,40.1z"/>
			</g>
		</g>
	</g>
</g>
<g id="b" class="st9">
	<path class="st10" d="M185.7,54.4c-2.18,3.08-4.22,5.96-6.53,9.24c-2.09-3.11-4.04-5.85-5.81-8.69
		c-12.26-19.62-39.99-18.5-52.39,1.12c-7.72,12.22-15.11,24.67-22.28,37.22c-11.25,19.68-33.89,21.76-49.63,15.77
		c-17.44-6.64-27.44-24.83-24.31-43.99c3.73-22.8,22.43-36.43,45.88-33.22c0.67,3.14,0.33,6.36,0.18,9.6
		c-17.08-2.78-31.47,6.56-34.62,22.32c-3.68,18.42,5.13,33.7,21.73,37.69c12.39,2.98,24.1-1.31,30.88-12.02
		c7.45-11.77,14.33-23.91,21.61-35.79c6.8-11.09,15.84-19.2,29.2-21.54C159.25,28.64,175.75,36.51,185.7,54.4z"/>
</g>
<g id="a" class="st9">
	<linearGradient id="SVGID_1_" gradientUnits="userSpaceOnUse" x1="109.7119" y1="83.7353" x2="179.347" y2="83.7353">
		<stop  offset="0.081" style="stop-color:#47C1F0"/>
		<stop  offset="1" style="stop-color:#0C2B3E"/>
	</linearGradient>
	<path style="display:inline;fill:none;stroke:url(#SVGID_1_);stroke-width:10;stroke-miterlimit:10;" d="M175.35,73.41
		c-3.18,4.24-12.35,14.82-28.59,18.16c-16.24,3.33-26.88-11.39-34.24-16.39"/>
</g>
<g id="Layer_2">
	<linearGradient id="SVGID_2_" gradientUnits="userSpaceOnUse" x1="109.7729" y1="93.6096" x2="186.8118" y2="93.6096">
		<stop  offset="0.081" style="stop-color:#47C1F0"/>
		<stop  offset="1" style="stop-color:#0C2B3E"/>
	</linearGradient>
	<path class="st5" d="M183.07,84.44c-8.67,9.77-21.35,15.77-34.36,16.58c-16.07,1-28.65-8.51-35.65-14.63"/>
</g>
<g id="Layer_3">
	<path class="st16" d="M71.01,36.93C60.65,36.5,49.53,37.8,41.53,44.4c-4.99,4.11-8.33,10-10.05,16.24
		c-2.08,7.54-1.88,15.69,0.56,23.11c2.24,6.81,6.44,13.08,12.33,17.17c11.51,8,28.78,8.22,40.2,0.04
		c6.93-4.96,11.62-12.42,15.77-19.87c5.49-9.85,10.42-20.14,17.66-28.78c12.54-14.97,31.7-21.21,49.33-10.8
		c7.53,4.44,12.32,12.26,18.02,18.68"/>
</g>
</svg>
